<mxfile host="65bd71144e">
    <diagram id="LRQfEBp96-ctLEuX3IUN" name="Page-1">
        <mxGraphModel dx="1013" dy="663" grid="1" gridSize="10" guides="1" tooltips="1" connect="1" arrows="1" fold="1" page="1" pageScale="1" pageWidth="850" pageHeight="1100" math="0" shadow="0">
            <root>
                <mxCell id="0"/>
                <mxCell id="1" parent="0"/>
                <mxCell id="2" value="" style="shape=image;imageAspect=0;aspect=fixed;verticalLabelPosition=bottom;verticalAlign=top;image=data:image/png,iVBORw0KGgoAAAANSUhEUgAAAFEAAAA/CAYAAACYcSQcAAAAAXNSR0IArs4c6QAAAARnQU1BAACxjwv8YQUAAAAJcEhZcwAADsMAAA7DAcdvqGQAAAg/SURBVHhe7ZprbBTXGYafmdmbd71eg4kxFAwJKBiHlFyAJkopIRCwQpWikEgUFyKlUNUpQqGiKShUhfRC2kZNRNNEpSqRjICkKBWuCgICDQ0RCiUyCbVwQ6mFgAJxDfJ6veu9zKU/1jvsHHu9Xtg1A93nz8x5vzMazatzvnMbKRAIGBS5IWRRKJI7RRPzQNHEPFA0MQ8UTcwDRRPzQNHEPFA0MQ/Y3kTvsndEyXbYykT3wyssZWXsNJyT6yyaHbGViZ4nfwVAydc3UfLUZkqfPyhWsSW2MjGF65EGXNOXmeXAzzoscbthSxP7IDtExVbYw0Sn17z1Ld1uCd0K2MLEwMsXzXtH7QJL7FZgyEyUy8eK0m3DkJno/+E/RMlCyVObRclCtvjNZMhMzEb6aNwf2eI3k4KbWLrqiKXsfvwlS/l2oOAmKqPuNe/dM1fieewHlrhr2lJLeSAcE2bhXfx7UR40vm/vFqW8UDATnVOeFCU8T/xUlChZ9BtRyohveRPOqc+IsgW54k5zva186T7oXQGVfu8DHBMfFWrnh4KZ6K1vpGThr0XZxDFhligNGs/ctaJk4l9zAufkOnwN71O68jDu2WtwPdKAMuZ+sWreKIiJqemM6yvPiSET3/Im3LPXiPKgcM/JbGIKR/V0ADzz1lt098yVeR/ppUKcOwc2dVrKic/ewzl10bVySxPOKd+w1MkZXSWy8znkYdXEjryBZ/6Pie7f2OfdmdCvtIHLR+jnk8RQzpgtsb/uJTncogSAs2a+KA1IuoHAjRtIcj3trW8086z70dUDpg8RueIuZP9IUTbxr2kWJQDkyhpRumaib3mTNQKU/eQLUQLA++y7onRT8TW8D1nSRyZ8K/4iStBrcn/4V38sSoXJiUNNKv9dD467vipKOWM7ExOXThH6YDOxtqPEzzeTaD9NtPWAWM1W5N1E5wPfFKWsaMGL6LFuoq0HiDT/ET1ylWjrAXpO/pnI8R3E2o6Kj9gKq4myYikCKKOmIHnKRBmpbBTuWS8A4Bj/EKWrjlC2/t94n3lLrGoS/89JUQKg+6MthA6+OqBZwb0v03NqH2hxMdQHLXhta+1GcM9cKUoWZH8lpE9xUlOD4Lpys1L6dCG4rhzJ4cY1e41l6RY/trVPQlevnkPruoziH4Ha0YZSVkX0Xx+ih9pRhlVTUjuP6Od/RfZXkjj/KYYatTyfDWdVLSX31KGFO9AjnShlVeiRTvRwB/GLLeihdpwj70b2jUAPd6DHupHcZaBGkZxeZH8lkiyjBEbjuGMiiZYmjEQU1BjKqHtJnD5ofmNwXTlyxZ0Y4Su4Hv4Onnnr0S6cQP18P+45a+l+41GkkYs2GQBSzRPInlKkniCSrwL1zGGUCV9D6+lC8Q2H7v+ijLkf7epZdDUOmork8gBgaCoAeqgdPdJJ/Nwn6d9saySHB9/0xRiGnhJwDK9GvdKGEY8gawmkYeOQfcPNb5cMHZxeDDWK7C5Fqn7TMACCezYAEFiQvKZr6Xq6drsSWLDB4kdwzwaLJpL3geX/EalqxTsG8TBS9Yxk0zT0ZFeuno7hDmDEupC9w9FamnA+uAQtEkwmd11Fclq7sxZqx+jpJHb278Jr7Ivk8uJ9cDESvd1ZdmBcPYtUPgY9FkEprcDQNRLHtuKYtgy0OIahI7u8GIkoktOT28AC4J71Ap66a83aiAaRPAGzDKB1XkALXhtYZH8VsTMfonVdxlExHs/k5MCi+CuJX/gUIx6xPJ8N5+gpeGrrMHoHFrmsCqOnE627g8TFluR7Rtag+EeghTognhxYDDWK5PKi+CtBklHKR+PoXZnEjm5BqaoFNUr47actfihjp6Gd/wRnzXxztRY79AruOWvp2b06dxPT9fDv6lDPfoxv6fZBndIlLrXgHDVFlDPmmnQkxYFr3Azckx5DynIOrXVdRimrEuWMJJp3ENn1vEXrz49MupkT9SttppgifmwrwZcqRBn13PHk9WxyHRneVk+4cQmRXQ1olzIfSPVnIEDpzO9SNu9F3BMzL8HK6tbjmTwvq4FATgYCfQwEUM8cFqWMmCaGXn3AGgF6dn8fdE2UCb/1uCihtu4l0byT7s0zxVBWlLIqJKcXz6S5+KYtRikdQck9dXinLsQ341sDmlsown9YKEoA/Taq6x6dtQsnRCkvOEbWUDprJa7xD+Eccx+OOybimTRXrDYkxI9tFSXQtT69zbIpK3mHY0SuWioMpGdisBujdkHMe7liaYmZjMqkD5ZUDi0U0X3ZB6ZMJFr67qPmynV354GIHUme4Kmnk/8X9pdDAYyu698oUE/tMe9jf3sdAD3U/yZyJtRTe4hsf1aUc6YgJkb3/ojovg2E335aDAGgf9EKQNemWjE0aMLb6kl89p5Zjh1+bVDnJeHGJRjhKySadxDeVi+Gr4uCHFSlE9jUSXBded85p9MLiQhy+dis/+n0RyqPOe6eg3r6kKkPlI8TrfuINC4W5RumIC0xnYzzrURylaJ3nhcjOZFuIEDoF8k/LuLHGwGI7GqA3tlEIQxkKEwU51tq20eWcq7o7f80jekPvfM88RPv0vOnVUT3rifRvBP19EG6fztbrJo3Ct6dU/S3XBJjg6G/5282BW+JKWKHXxOlnEm07hMlWzBkJkb3bzSnPiKDmZrEDr1SsJx2owxZd86G/8WTyMOqRdnEjt04xZC1xGyEfvllUbplsI2JKYxo0FyN2Ln1pWMrE7u3LKBr4zjC2+rpfjO5cxM90PfHULthm5w4EKlVj12xVUvMRD6mR4XklmiJdueWaIl2p2hiHiiamAeKJuaBool54H+Bk+Y52hg6MwAAAABJRU5ErkJggg==;" parent="1" vertex="1">
                    <mxGeometry x="320" y="79" width="81" height="63" as="geometry"/>
                </mxCell>
                <mxCell id="3" value="" style="shape=image;imageAspect=0;aspect=fixed;verticalLabelPosition=bottom;verticalAlign=top;image=data:image/png,iVBORw0KGgoAAAANSUhEUgAAAFEAAAA/CAYAAACYcSQcAAAAAXNSR0IArs4c6QAAAARnQU1BAACxjwv8YQUAAAAJcEhZcwAADsMAAA7DAcdvqGQAAAg/SURBVHhe7ZprbBTXGYafmdmbd71eg4kxFAwJKBiHlFyAJkopIRCwQpWikEgUFyKlUNUpQqGiKShUhfRC2kZNRNNEpSqRjICkKBWuCgICDQ0RCiUyCbVwQ6mFgAJxDfJ6veu9zKU/1jvsHHu9Xtg1A93nz8x5vzMazatzvnMbKRAIGBS5IWRRKJI7RRPzQNHEPFA0MQ8UTcwDRRPzQNHEPFA0MQ/Y3kTvsndEyXbYykT3wyssZWXsNJyT6yyaHbGViZ4nfwVAydc3UfLUZkqfPyhWsSW2MjGF65EGXNOXmeXAzzoscbthSxP7IDtExVbYw0Sn17z1Ld1uCd0K2MLEwMsXzXtH7QJL7FZgyEyUy8eK0m3DkJno/+E/RMlCyVObRclCtvjNZMhMzEb6aNwf2eI3k4KbWLrqiKXsfvwlS/l2oOAmKqPuNe/dM1fieewHlrhr2lJLeSAcE2bhXfx7UR40vm/vFqW8UDATnVOeFCU8T/xUlChZ9BtRyohveRPOqc+IsgW54k5zva186T7oXQGVfu8DHBMfFWrnh4KZ6K1vpGThr0XZxDFhligNGs/ctaJk4l9zAufkOnwN71O68jDu2WtwPdKAMuZ+sWreKIiJqemM6yvPiSET3/Im3LPXiPKgcM/JbGIKR/V0ADzz1lt098yVeR/ppUKcOwc2dVrKic/ewzl10bVySxPOKd+w1MkZXSWy8znkYdXEjryBZ/6Pie7f2OfdmdCvtIHLR+jnk8RQzpgtsb/uJTncogSAs2a+KA1IuoHAjRtIcj3trW8086z70dUDpg8RueIuZP9IUTbxr2kWJQDkyhpRumaib3mTNQKU/eQLUQLA++y7onRT8TW8D1nSRyZ8K/4iStBrcn/4V38sSoXJiUNNKv9dD467vipKOWM7ExOXThH6YDOxtqPEzzeTaD9NtPWAWM1W5N1E5wPfFKWsaMGL6LFuoq0HiDT/ET1ylWjrAXpO/pnI8R3E2o6Kj9gKq4myYikCKKOmIHnKRBmpbBTuWS8A4Bj/EKWrjlC2/t94n3lLrGoS/89JUQKg+6MthA6+OqBZwb0v03NqH2hxMdQHLXhta+1GcM9cKUoWZH8lpE9xUlOD4Lpys1L6dCG4rhzJ4cY1e41l6RY/trVPQlevnkPruoziH4Ha0YZSVkX0Xx+ih9pRhlVTUjuP6Od/RfZXkjj/KYYatTyfDWdVLSX31KGFO9AjnShlVeiRTvRwB/GLLeihdpwj70b2jUAPd6DHupHcZaBGkZxeZH8lkiyjBEbjuGMiiZYmjEQU1BjKqHtJnD5ofmNwXTlyxZ0Y4Su4Hv4Onnnr0S6cQP18P+45a+l+41GkkYs2GQBSzRPInlKkniCSrwL1zGGUCV9D6+lC8Q2H7v+ijLkf7epZdDUOmork8gBgaCoAeqgdPdJJ/Nwn6d9saySHB9/0xRiGnhJwDK9GvdKGEY8gawmkYeOQfcPNb5cMHZxeDDWK7C5Fqn7TMACCezYAEFiQvKZr6Xq6drsSWLDB4kdwzwaLJpL3geX/EalqxTsG8TBS9Yxk0zT0ZFeuno7hDmDEupC9w9FamnA+uAQtEkwmd11Fclq7sxZqx+jpJHb278Jr7Ivk8uJ9cDESvd1ZdmBcPYtUPgY9FkEprcDQNRLHtuKYtgy0OIahI7u8GIkoktOT28AC4J71Ap66a83aiAaRPAGzDKB1XkALXhtYZH8VsTMfonVdxlExHs/k5MCi+CuJX/gUIx6xPJ8N5+gpeGrrMHoHFrmsCqOnE627g8TFluR7Rtag+EeghTognhxYDDWK5PKi+CtBklHKR+PoXZnEjm5BqaoFNUr47actfihjp6Gd/wRnzXxztRY79AruOWvp2b06dxPT9fDv6lDPfoxv6fZBndIlLrXgHDVFlDPmmnQkxYFr3Azckx5DynIOrXVdRimrEuWMJJp3ENn1vEXrz49MupkT9SttppgifmwrwZcqRBn13PHk9WxyHRneVk+4cQmRXQ1olzIfSPVnIEDpzO9SNu9F3BMzL8HK6tbjmTwvq4FATgYCfQwEUM8cFqWMmCaGXn3AGgF6dn8fdE2UCb/1uCihtu4l0byT7s0zxVBWlLIqJKcXz6S5+KYtRikdQck9dXinLsQ341sDmlsown9YKEoA/Taq6x6dtQsnRCkvOEbWUDprJa7xD+Eccx+OOybimTRXrDYkxI9tFSXQtT69zbIpK3mHY0SuWioMpGdisBujdkHMe7liaYmZjMqkD5ZUDi0U0X3ZB6ZMJFr67qPmynV354GIHUme4Kmnk/8X9pdDAYyu698oUE/tMe9jf3sdAD3U/yZyJtRTe4hsf1aUc6YgJkb3/ojovg2E335aDAGgf9EKQNemWjE0aMLb6kl89p5Zjh1+bVDnJeHGJRjhKySadxDeVi+Gr4uCHFSlE9jUSXBded85p9MLiQhy+dis/+n0RyqPOe6eg3r6kKkPlI8TrfuINC4W5RumIC0xnYzzrURylaJ3nhcjOZFuIEDoF8k/LuLHGwGI7GqA3tlEIQxkKEwU51tq20eWcq7o7f80jekPvfM88RPv0vOnVUT3rifRvBP19EG6fztbrJo3Ct6dU/S3XBJjg6G/5282BW+JKWKHXxOlnEm07hMlWzBkJkb3bzSnPiKDmZrEDr1SsJx2owxZd86G/8WTyMOqRdnEjt04xZC1xGyEfvllUbplsI2JKYxo0FyN2Ln1pWMrE7u3LKBr4zjC2+rpfjO5cxM90PfHULthm5w4EKlVj12xVUvMRD6mR4XklmiJdueWaIl2p2hiHiiamAeKJuaBool54H+Bk+Y52hg6MwAAAABJRU5ErkJggg==;" parent="1" vertex="1">
                    <mxGeometry x="330" y="89" width="81" height="63" as="geometry"/>
                </mxCell>
                <mxCell id="92" value="" style="edgeStyle=none;html=1;rounded=0;" parent="1" source="4" edge="1">
                    <mxGeometry relative="1" as="geometry">
                        <Array as="points">
                            <mxPoint x="480" y="130"/>
                            <mxPoint x="480" y="160"/>
                            <mxPoint x="575" y="160"/>
                        </Array>
                        <mxPoint x="575" y="220" as="targetPoint"/>
                    </mxGeometry>
                </mxCell>
                <mxCell id="4" value="" style="shape=image;imageAspect=0;aspect=fixed;verticalLabelPosition=bottom;verticalAlign=top;image=data:image/png,iVBORw0KGgoAAAANSUhEUgAAAFEAAAA/CAYAAACYcSQcAAAAAXNSR0IArs4c6QAAAARnQU1BAACxjwv8YQUAAAAJcEhZcwAADsMAAA7DAcdvqGQAAAg/SURBVHhe7ZprbBTXGYafmdmbd71eg4kxFAwJKBiHlFyAJkopIRCwQpWikEgUFyKlUNUpQqGiKShUhfRC2kZNRNNEpSqRjICkKBWuCgICDQ0RCiUyCbVwQ6mFgAJxDfJ6veu9zKU/1jvsHHu9Xtg1A93nz8x5vzMazatzvnMbKRAIGBS5IWRRKJI7RRPzQNHEPFA0MQ8UTcwDRRPzQNHEPFA0MQ/Y3kTvsndEyXbYykT3wyssZWXsNJyT6yyaHbGViZ4nfwVAydc3UfLUZkqfPyhWsSW2MjGF65EGXNOXmeXAzzoscbthSxP7IDtExVbYw0Sn17z1Ld1uCd0K2MLEwMsXzXtH7QJL7FZgyEyUy8eK0m3DkJno/+E/RMlCyVObRclCtvjNZMhMzEb6aNwf2eI3k4KbWLrqiKXsfvwlS/l2oOAmKqPuNe/dM1fieewHlrhr2lJLeSAcE2bhXfx7UR40vm/vFqW8UDATnVOeFCU8T/xUlChZ9BtRyohveRPOqc+IsgW54k5zva186T7oXQGVfu8DHBMfFWrnh4KZ6K1vpGThr0XZxDFhligNGs/ctaJk4l9zAufkOnwN71O68jDu2WtwPdKAMuZ+sWreKIiJqemM6yvPiSET3/Im3LPXiPKgcM/JbGIKR/V0ADzz1lt098yVeR/ppUKcOwc2dVrKic/ewzl10bVySxPOKd+w1MkZXSWy8znkYdXEjryBZ/6Pie7f2OfdmdCvtIHLR+jnk8RQzpgtsb/uJTncogSAs2a+KA1IuoHAjRtIcj3trW8086z70dUDpg8RueIuZP9IUTbxr2kWJQDkyhpRumaib3mTNQKU/eQLUQLA++y7onRT8TW8D1nSRyZ8K/4iStBrcn/4V38sSoXJiUNNKv9dD467vipKOWM7ExOXThH6YDOxtqPEzzeTaD9NtPWAWM1W5N1E5wPfFKWsaMGL6LFuoq0HiDT/ET1ylWjrAXpO/pnI8R3E2o6Kj9gKq4myYikCKKOmIHnKRBmpbBTuWS8A4Bj/EKWrjlC2/t94n3lLrGoS/89JUQKg+6MthA6+OqBZwb0v03NqH2hxMdQHLXhta+1GcM9cKUoWZH8lpE9xUlOD4Lpys1L6dCG4rhzJ4cY1e41l6RY/trVPQlevnkPruoziH4Ha0YZSVkX0Xx+ih9pRhlVTUjuP6Od/RfZXkjj/KYYatTyfDWdVLSX31KGFO9AjnShlVeiRTvRwB/GLLeihdpwj70b2jUAPd6DHupHcZaBGkZxeZH8lkiyjBEbjuGMiiZYmjEQU1BjKqHtJnD5ofmNwXTlyxZ0Y4Su4Hv4Onnnr0S6cQP18P+45a+l+41GkkYs2GQBSzRPInlKkniCSrwL1zGGUCV9D6+lC8Q2H7v+ijLkf7epZdDUOmork8gBgaCoAeqgdPdJJ/Nwn6d9saySHB9/0xRiGnhJwDK9GvdKGEY8gawmkYeOQfcPNb5cMHZxeDDWK7C5Fqn7TMACCezYAEFiQvKZr6Xq6drsSWLDB4kdwzwaLJpL3geX/EalqxTsG8TBS9Yxk0zT0ZFeuno7hDmDEupC9w9FamnA+uAQtEkwmd11Fclq7sxZqx+jpJHb278Jr7Ivk8uJ9cDESvd1ZdmBcPYtUPgY9FkEprcDQNRLHtuKYtgy0OIahI7u8GIkoktOT28AC4J71Ap66a83aiAaRPAGzDKB1XkALXhtYZH8VsTMfonVdxlExHs/k5MCi+CuJX/gUIx6xPJ8N5+gpeGrrMHoHFrmsCqOnE627g8TFluR7Rtag+EeghTognhxYDDWK5PKi+CtBklHKR+PoXZnEjm5BqaoFNUr47actfihjp6Gd/wRnzXxztRY79AruOWvp2b06dxPT9fDv6lDPfoxv6fZBndIlLrXgHDVFlDPmmnQkxYFr3Azckx5DynIOrXVdRimrEuWMJJp3ENn1vEXrz49MupkT9SttppgifmwrwZcqRBn13PHk9WxyHRneVk+4cQmRXQ1olzIfSPVnIEDpzO9SNu9F3BMzL8HK6tbjmTwvq4FATgYCfQwEUM8cFqWMmCaGXn3AGgF6dn8fdE2UCb/1uCihtu4l0byT7s0zxVBWlLIqJKcXz6S5+KYtRikdQck9dXinLsQ341sDmlsown9YKEoA/Taq6x6dtQsnRCkvOEbWUDprJa7xD+Eccx+OOybimTRXrDYkxI9tFSXQtT69zbIpK3mHY0SuWioMpGdisBujdkHMe7liaYmZjMqkD5ZUDi0U0X3ZB6ZMJFr67qPmynV354GIHUme4Kmnk/8X9pdDAYyu698oUE/tMe9jf3sdAD3U/yZyJtRTe4hsf1aUc6YgJkb3/ojovg2E335aDAGgf9EKQNemWjE0aMLb6kl89p5Zjh1+bVDnJeHGJRjhKySadxDeVi+Gr4uCHFSlE9jUSXBded85p9MLiQhy+dis/+n0RyqPOe6eg3r6kKkPlI8TrfuINC4W5RumIC0xnYzzrURylaJ3nhcjOZFuIEDoF8k/LuLHGwGI7GqA3tlEIQxkKEwU51tq20eWcq7o7f80jekPvfM88RPv0vOnVUT3rifRvBP19EG6fztbrJo3Ct6dU/S3XBJjg6G/5282BW+JKWKHXxOlnEm07hMlWzBkJkb3bzSnPiKDmZrEDr1SsJx2owxZd86G/8WTyMOqRdnEjt04xZC1xGyEfvllUbplsI2JKYxo0FyN2Ln1pWMrE7u3LKBr4zjC2+rpfjO5cxM90PfHULthm5w4EKlVj12xVUvMRD6mR4XklmiJdueWaIl2p2hiHiiamAeKJuaBool54H+Bk+Y52hg6MwAAAABJRU5ErkJggg==;" parent="1" vertex="1">
                    <mxGeometry x="340" y="99" width="81" height="63" as="geometry"/>
                </mxCell>
                <mxCell id="5" value="" style="shape=image;imageAspect=0;aspect=fixed;verticalLabelPosition=bottom;verticalAlign=top;image=data:image/png,iVBORw0KGgoAAAANSUhEUgAAAFEAAAA/CAYAAACYcSQcAAAAAXNSR0IArs4c6QAAAARnQU1BAACxjwv8YQUAAAAJcEhZcwAADsMAAA7DAcdvqGQAAAg/SURBVHhe7ZprbBTXGYafmdmbd71eg4kxFAwJKBiHlFyAJkopIRCwQpWikEgUFyKlUNUpQqGiKShUhfRC2kZNRNNEpSqRjICkKBWuCgICDQ0RCiUyCbVwQ6mFgAJxDfJ6veu9zKU/1jvsHHu9Xtg1A93nz8x5vzMazatzvnMbKRAIGBS5IWRRKJI7RRPzQNHEPFA0MQ8UTcwDRRPzQNHEPFA0MQ/Y3kTvsndEyXbYykT3wyssZWXsNJyT6yyaHbGViZ4nfwVAydc3UfLUZkqfPyhWsSW2MjGF65EGXNOXmeXAzzoscbthSxP7IDtExVbYw0Sn17z1Ld1uCd0K2MLEwMsXzXtH7QJL7FZgyEyUy8eK0m3DkJno/+E/RMlCyVObRclCtvjNZMhMzEb6aNwf2eI3k4KbWLrqiKXsfvwlS/l2oOAmKqPuNe/dM1fieewHlrhr2lJLeSAcE2bhXfx7UR40vm/vFqW8UDATnVOeFCU8T/xUlChZ9BtRyohveRPOqc+IsgW54k5zva186T7oXQGVfu8DHBMfFWrnh4KZ6K1vpGThr0XZxDFhligNGs/ctaJk4l9zAufkOnwN71O68jDu2WtwPdKAMuZ+sWreKIiJqemM6yvPiSET3/Im3LPXiPKgcM/JbGIKR/V0ADzz1lt098yVeR/ppUKcOwc2dVrKic/ewzl10bVySxPOKd+w1MkZXSWy8znkYdXEjryBZ/6Pie7f2OfdmdCvtIHLR+jnk8RQzpgtsb/uJTncogSAs2a+KA1IuoHAjRtIcj3trW8086z70dUDpg8RueIuZP9IUTbxr2kWJQDkyhpRumaib3mTNQKU/eQLUQLA++y7onRT8TW8D1nSRyZ8K/4iStBrcn/4V38sSoXJiUNNKv9dD467vipKOWM7ExOXThH6YDOxtqPEzzeTaD9NtPWAWM1W5N1E5wPfFKWsaMGL6LFuoq0HiDT/ET1ylWjrAXpO/pnI8R3E2o6Kj9gKq4myYikCKKOmIHnKRBmpbBTuWS8A4Bj/EKWrjlC2/t94n3lLrGoS/89JUQKg+6MthA6+OqBZwb0v03NqH2hxMdQHLXhta+1GcM9cKUoWZH8lpE9xUlOD4Lpys1L6dCG4rhzJ4cY1e41l6RY/trVPQlevnkPruoziH4Ha0YZSVkX0Xx+ih9pRhlVTUjuP6Od/RfZXkjj/KYYatTyfDWdVLSX31KGFO9AjnShlVeiRTvRwB/GLLeihdpwj70b2jUAPd6DHupHcZaBGkZxeZH8lkiyjBEbjuGMiiZYmjEQU1BjKqHtJnD5ofmNwXTlyxZ0Y4Su4Hv4Onnnr0S6cQP18P+45a+l+41GkkYs2GQBSzRPInlKkniCSrwL1zGGUCV9D6+lC8Q2H7v+ijLkf7epZdDUOmork8gBgaCoAeqgdPdJJ/Nwn6d9saySHB9/0xRiGnhJwDK9GvdKGEY8gawmkYeOQfcPNb5cMHZxeDDWK7C5Fqn7TMACCezYAEFiQvKZr6Xq6drsSWLDB4kdwzwaLJpL3geX/EalqxTsG8TBS9Yxk0zT0ZFeuno7hDmDEupC9w9FamnA+uAQtEkwmd11Fclq7sxZqx+jpJHb278Jr7Ivk8uJ9cDESvd1ZdmBcPYtUPgY9FkEprcDQNRLHtuKYtgy0OIahI7u8GIkoktOT28AC4J71Ap66a83aiAaRPAGzDKB1XkALXhtYZH8VsTMfonVdxlExHs/k5MCi+CuJX/gUIx6xPJ8N5+gpeGrrMHoHFrmsCqOnE627g8TFluR7Rtag+EeghTognhxYDDWK5PKi+CtBklHKR+PoXZnEjm5BqaoFNUr47actfihjp6Gd/wRnzXxztRY79AruOWvp2b06dxPT9fDv6lDPfoxv6fZBndIlLrXgHDVFlDPmmnQkxYFr3Azckx5DynIOrXVdRimrEuWMJJp3ENn1vEXrz49MupkT9SttppgifmwrwZcqRBn13PHk9WxyHRneVk+4cQmRXQ1olzIfSPVnIEDpzO9SNu9F3BMzL8HK6tbjmTwvq4FATgYCfQwEUM8cFqWMmCaGXn3AGgF6dn8fdE2UCb/1uCihtu4l0byT7s0zxVBWlLIqJKcXz6S5+KYtRikdQck9dXinLsQ341sDmlsown9YKEoA/Taq6x6dtQsnRCkvOEbWUDprJa7xD+Eccx+OOybimTRXrDYkxI9tFSXQtT69zbIpK3mHY0SuWioMpGdisBujdkHMe7liaYmZjMqkD5ZUDi0U0X3ZB6ZMJFr67qPmynV354GIHUme4Kmnk/8X9pdDAYyu698oUE/tMe9jf3sdAD3U/yZyJtRTe4hsf1aUc6YgJkb3/ojovg2E335aDAGgf9EKQNemWjE0aMLb6kl89p5Zjh1+bVDnJeHGJRjhKySadxDeVi+Gr4uCHFSlE9jUSXBded85p9MLiQhy+dis/+n0RyqPOe6eg3r6kKkPlI8TrfuINC4W5RumIC0xnYzzrURylaJ3nhcjOZFuIEDoF8k/LuLHGwGI7GqA3tlEIQxkKEwU51tq20eWcq7o7f80jekPvfM88RPv0vOnVUT3rifRvBP19EG6fztbrJo3Ct6dU/S3XBJjg6G/5282BW+JKWKHXxOlnEm07hMlWzBkJkb3bzSnPiKDmZrEDr1SsJx2owxZd86G/8WTyMOqRdnEjt04xZC1xGyEfvllUbplsI2JKYxo0FyN2Ln1pWMrE7u3LKBr4zjC2+rpfjO5cxM90PfHULthm5w4EKlVj12xVUvMRD6mR4XklmiJdueWaIl2p2hiHiiamAeKJuaBool54H+Bk+Y52hg6MwAAAABJRU5ErkJggg==;" parent="1" vertex="1">
                    <mxGeometry x="524.5" y="75" width="81" height="63" as="geometry"/>
                </mxCell>
                <mxCell id="6" value="" style="shape=image;imageAspect=0;aspect=fixed;verticalLabelPosition=bottom;verticalAlign=top;image=data:image/png,iVBORw0KGgoAAAANSUhEUgAAAFEAAAA/CAYAAACYcSQcAAAAAXNSR0IArs4c6QAAAARnQU1BAACxjwv8YQUAAAAJcEhZcwAADsMAAA7DAcdvqGQAAAg/SURBVHhe7ZprbBTXGYafmdmbd71eg4kxFAwJKBiHlFyAJkopIRCwQpWikEgUFyKlUNUpQqGiKShUhfRC2kZNRNNEpSqRjICkKBWuCgICDQ0RCiUyCbVwQ6mFgAJxDfJ6veu9zKU/1jvsHHu9Xtg1A93nz8x5vzMazatzvnMbKRAIGBS5IWRRKJI7RRPzQNHEPFA0MQ8UTcwDRRPzQNHEPFA0MQ/Y3kTvsndEyXbYykT3wyssZWXsNJyT6yyaHbGViZ4nfwVAydc3UfLUZkqfPyhWsSW2MjGF65EGXNOXmeXAzzoscbthSxP7IDtExVbYw0Sn17z1Ld1uCd0K2MLEwMsXzXtH7QJL7FZgyEyUy8eK0m3DkJno/+E/RMlCyVObRclCtvjNZMhMzEb6aNwf2eI3k4KbWLrqiKXsfvwlS/l2oOAmKqPuNe/dM1fieewHlrhr2lJLeSAcE2bhXfx7UR40vm/vFqW8UDATnVOeFCU8T/xUlChZ9BtRyohveRPOqc+IsgW54k5zva186T7oXQGVfu8DHBMfFWrnh4KZ6K1vpGThr0XZxDFhligNGs/ctaJk4l9zAufkOnwN71O68jDu2WtwPdKAMuZ+sWreKIiJqemM6yvPiSET3/Im3LPXiPKgcM/JbGIKR/V0ADzz1lt098yVeR/ppUKcOwc2dVrKic/ewzl10bVySxPOKd+w1MkZXSWy8znkYdXEjryBZ/6Pie7f2OfdmdCvtIHLR+jnk8RQzpgtsb/uJTncogSAs2a+KA1IuoHAjRtIcj3trW8086z70dUDpg8RueIuZP9IUTbxr2kWJQDkyhpRumaib3mTNQKU/eQLUQLA++y7onRT8TW8D1nSRyZ8K/4iStBrcn/4V38sSoXJiUNNKv9dD467vipKOWM7ExOXThH6YDOxtqPEzzeTaD9NtPWAWM1W5N1E5wPfFKWsaMGL6LFuoq0HiDT/ET1ylWjrAXpO/pnI8R3E2o6Kj9gKq4myYikCKKOmIHnKRBmpbBTuWS8A4Bj/EKWrjlC2/t94n3lLrGoS/89JUQKg+6MthA6+OqBZwb0v03NqH2hxMdQHLXhta+1GcM9cKUoWZH8lpE9xUlOD4Lpys1L6dCG4rhzJ4cY1e41l6RY/trVPQlevnkPruoziH4Ha0YZSVkX0Xx+ih9pRhlVTUjuP6Od/RfZXkjj/KYYatTyfDWdVLSX31KGFO9AjnShlVeiRTvRwB/GLLeihdpwj70b2jUAPd6DHupHcZaBGkZxeZH8lkiyjBEbjuGMiiZYmjEQU1BjKqHtJnD5ofmNwXTlyxZ0Y4Su4Hv4Onnnr0S6cQP18P+45a+l+41GkkYs2GQBSzRPInlKkniCSrwL1zGGUCV9D6+lC8Q2H7v+ijLkf7epZdDUOmork8gBgaCoAeqgdPdJJ/Nwn6d9saySHB9/0xRiGnhJwDK9GvdKGEY8gawmkYeOQfcPNb5cMHZxeDDWK7C5Fqn7TMACCezYAEFiQvKZr6Xq6drsSWLDB4kdwzwaLJpL3geX/EalqxTsG8TBS9Yxk0zT0ZFeuno7hDmDEupC9w9FamnA+uAQtEkwmd11Fclq7sxZqx+jpJHb278Jr7Ivk8uJ9cDESvd1ZdmBcPYtUPgY9FkEprcDQNRLHtuKYtgy0OIahI7u8GIkoktOT28AC4J71Ap66a83aiAaRPAGzDKB1XkALXhtYZH8VsTMfonVdxlExHs/k5MCi+CuJX/gUIx6xPJ8N5+gpeGrrMHoHFrmsCqOnE627g8TFluR7Rtag+EeghTognhxYDDWK5PKi+CtBklHKR+PoXZnEjm5BqaoFNUr47actfihjp6Gd/wRnzXxztRY79AruOWvp2b06dxPT9fDv6lDPfoxv6fZBndIlLrXgHDVFlDPmmnQkxYFr3Azckx5DynIOrXVdRimrEuWMJJp3ENn1vEXrz49MupkT9SttppgifmwrwZcqRBn13PHk9WxyHRneVk+4cQmRXQ1olzIfSPVnIEDpzO9SNu9F3BMzL8HK6tbjmTwvq4FATgYCfQwEUM8cFqWMmCaGXn3AGgF6dn8fdE2UCb/1uCihtu4l0byT7s0zxVBWlLIqJKcXz6S5+KYtRikdQck9dXinLsQ341sDmlsown9YKEoA/Taq6x6dtQsnRCkvOEbWUDprJa7xD+Eccx+OOybimTRXrDYkxI9tFSXQtT69zbIpK3mHY0SuWioMpGdisBujdkHMe7liaYmZjMqkD5ZUDi0U0X3ZB6ZMJFr67qPmynV354GIHUme4Kmnk/8X9pdDAYyu698oUE/tMe9jf3sdAD3U/yZyJtRTe4hsf1aUc6YgJkb3/ojovg2E335aDAGgf9EKQNemWjE0aMLb6kl89p5Zjh1+bVDnJeHGJRjhKySadxDeVi+Gr4uCHFSlE9jUSXBded85p9MLiQhy+dis/+n0RyqPOe6eg3r6kKkPlI8TrfuINC4W5RumIC0xnYzzrURylaJ3nhcjOZFuIEDoF8k/LuLHGwGI7GqA3tlEIQxkKEwU51tq20eWcq7o7f80jekPvfM88RPv0vOnVUT3rifRvBP19EG6fztbrJo3Ct6dU/S3XBJjg6G/5282BW+JKWKHXxOlnEm07hMlWzBkJkb3bzSnPiKDmZrEDr1SsJx2owxZd86G/8WTyMOqRdnEjt04xZC1xGyEfvllUbplsI2JKYxo0FyN2Ln1pWMrE7u3LKBr4zjC2+rpfjO5cxM90PfHULthm5w4EKlVj12xVUvMRD6mR4XklmiJdueWaIl2p2hiHiiamAeKJuaBool54H+Bk+Y52hg6MwAAAABJRU5ErkJggg==;" parent="1" vertex="1">
                    <mxGeometry x="534.5" y="85" width="83.57" height="65" as="geometry"/>
                </mxCell>
                <mxCell id="7" value="&lt;span style=&quot;font-weight: normal;&quot;&gt;&lt;font style=&quot;font-size: 13px;&quot;&gt;Vocalisations&lt;/font&gt;&lt;/span&gt;" style="text;strokeColor=none;fillColor=none;html=1;fontSize=24;fontStyle=1;verticalAlign=middle;align=center;" parent="1" vertex="1">
                    <mxGeometry x="275" y="39" width="90" height="40" as="geometry"/>
                </mxCell>
                <mxCell id="8" value="&lt;span style=&quot;font-weight: normal;&quot;&gt;&lt;font style=&quot;font-size: 13px;&quot;&gt;Bruits ambiants&lt;/font&gt;&lt;/span&gt;" style="text;strokeColor=none;fillColor=none;html=1;fontSize=24;fontStyle=1;verticalAlign=middle;align=center;" parent="1" vertex="1">
                    <mxGeometry x="470" y="40" width="90" height="40" as="geometry"/>
                </mxCell>
                <mxCell id="88" value="" style="edgeStyle=none;html=1;exitX=0.6;exitY=1;exitDx=0;exitDy=0;exitPerimeter=0;" parent="1" source="81" target="84" edge="1">
                    <mxGeometry relative="1" as="geometry">
                        <mxPoint x="380.5" y="221.5" as="sourcePoint"/>
                    </mxGeometry>
                </mxCell>
                <mxCell id="22" style="edgeStyle=none;rounded=0;html=1;entryX=0;entryY=0.5;entryDx=0;entryDy=0;fontSize=13;exitX=1;exitY=0.5;exitDx=0;exitDy=0;exitPerimeter=0;" parent="1" source="20" target="21" edge="1">
                    <mxGeometry relative="1" as="geometry"/>
                </mxCell>
                <mxCell id="20" value="PIPAN" style="shape=cylinder3;whiteSpace=wrap;html=1;boundedLbl=1;backgroundOutline=1;size=15;fontSize=13;" parent="1" vertex="1">
                    <mxGeometry x="20" y="15" width="60" height="70" as="geometry"/>
                </mxCell>
                <mxCell id="33" value="" style="edgeStyle=none;rounded=0;html=1;fontSize=13;entryX=0.5;entryY=0;entryDx=0;entryDy=0;" parent="1" source="21" target="5" edge="1">
                    <mxGeometry relative="1" as="geometry">
                        <Array as="points">
                            <mxPoint x="380" y="50"/>
                            <mxPoint x="565" y="50"/>
                        </Array>
                    </mxGeometry>
                </mxCell>
                <mxCell id="35" style="edgeStyle=none;rounded=0;html=1;exitX=1;exitY=0.5;exitDx=0;exitDy=0;fontSize=13;entryX=0.5;entryY=0;entryDx=0;entryDy=0;" parent="1" source="21" target="2" edge="1">
                    <mxGeometry relative="1" as="geometry">
                        <mxPoint x="450" y="70" as="targetPoint"/>
                        <Array as="points">
                            <mxPoint x="360" y="50"/>
                        </Array>
                    </mxGeometry>
                </mxCell>
                <mxCell id="21" value="Extraction" style="rounded=1;whiteSpace=wrap;html=1;fontSize=13;" parent="1" vertex="1">
                    <mxGeometry x="120" y="20" width="120" height="60" as="geometry"/>
                </mxCell>
                <mxCell id="25" value="Lot d'entrainement A" style="shape=cylinder3;whiteSpace=wrap;html=1;boundedLbl=1;backgroundOutline=1;size=15;fontSize=13;" parent="1" vertex="1">
                    <mxGeometry x="70" y="339" width="130" height="60" as="geometry"/>
                </mxCell>
                <mxCell id="26" value="Lot de test" style="shape=cylinder3;whiteSpace=wrap;html=1;boundedLbl=1;backgroundOutline=1;size=15;fontSize=13;" parent="1" vertex="1">
                    <mxGeometry x="390" y="432" width="130" height="50" as="geometry"/>
                </mxCell>
                <mxCell id="27" value="Lot d'entrainement B" style="shape=cylinder3;whiteSpace=wrap;html=1;boundedLbl=1;backgroundOutline=1;size=15;fontSize=13;" parent="1" vertex="1">
                    <mxGeometry x="680" y="340.5" width="130" height="60" as="geometry"/>
                </mxCell>
                <mxCell id="75" style="edgeStyle=none;rounded=0;html=1;exitX=0;exitY=0;exitDx=70;exitDy=80;exitPerimeter=0;entryX=0;entryY=0.5;entryDx=0;entryDy=0;fontSize=13;" parent="1" source="28" target="74" edge="1">
                    <mxGeometry relative="1" as="geometry">
                        <Array as="points">
                            <mxPoint x="160" y="552"/>
                        </Array>
                    </mxGeometry>
                </mxCell>
                <mxCell id="28" value="Modèle A" style="shape=cube;whiteSpace=wrap;html=1;boundedLbl=1;backgroundOutline=1;darkOpacity=0.05;darkOpacity2=0.1;fontSize=13;" parent="1" vertex="1">
                    <mxGeometry x="90" y="442" width="120" height="80" as="geometry"/>
                </mxCell>
                <mxCell id="76" style="edgeStyle=none;rounded=0;html=1;exitX=0;exitY=0;exitDx=70;exitDy=80;exitPerimeter=0;entryX=1;entryY=0.5;entryDx=0;entryDy=0;fontSize=13;" parent="1" source="29" target="74" edge="1">
                    <mxGeometry relative="1" as="geometry">
                        <Array as="points">
                            <mxPoint x="760" y="552"/>
                        </Array>
                    </mxGeometry>
                </mxCell>
                <mxCell id="29" value="Modèle B" style="shape=cube;whiteSpace=wrap;html=1;boundedLbl=1;backgroundOutline=1;darkOpacity=0.05;darkOpacity2=0.1;fontSize=13;" parent="1" vertex="1">
                    <mxGeometry x="690" y="441" width="120" height="80" as="geometry"/>
                </mxCell>
                <mxCell id="30" value="Le nombre d'extraits de vocalisation est utilisé comme valeur à prédire" style="whiteSpace=wrap;html=1;rounded=1;arcSize=50;align=center;verticalAlign=middle;strokeWidth=1;autosize=1;spacing=4;treeFolding=1;treeMoving=1;newEdgeStyle={&quot;edgeStyle&quot;:&quot;entityRelationEdgeStyle&quot;,&quot;startArrow&quot;:&quot;none&quot;,&quot;endArrow&quot;:&quot;none&quot;,&quot;segment&quot;:10,&quot;curved&quot;:1,&quot;sourcePerimeterSpacing&quot;:0,&quot;targetPerimeterSpacing&quot;:0};fontSize=13;" parent="1" vertex="1">
                    <mxGeometry x="70" y="121.5" width="205" height="54.5" as="geometry"/>
                </mxCell>
                <mxCell id="31" value="" style="edgeStyle=entityRelationEdgeStyle;startArrow=none;endArrow=none;segment=10;curved=1;sourcePerimeterSpacing=0;targetPerimeterSpacing=0;rounded=0;fontSize=13;exitX=0.012;exitY=0.619;exitDx=0;exitDy=0;entryX=1;entryY=0.5;entryDx=0;entryDy=0;exitPerimeter=0;" parent="1" source="2" target="30" edge="1">
                    <mxGeometry relative="1" as="geometry">
                        <mxPoint x="320" y="211.5" as="sourcePoint"/>
                        <mxPoint x="370" y="162.5" as="targetPoint"/>
                    </mxGeometry>
                </mxCell>
                <mxCell id="86" value="" style="edgeStyle=none;html=1;" parent="1" source="38" target="85" edge="1">
                    <mxGeometry relative="1" as="geometry"/>
                </mxCell>
                <mxCell id="38" value="Augmentation" style="rounded=1;whiteSpace=wrap;html=1;fontSize=13;" parent="1" vertex="1">
                    <mxGeometry x="531.54" y="200" width="89.5" height="40" as="geometry"/>
                </mxCell>
                <mxCell id="63" value="" style="edgeStyle=none;rounded=0;html=1;fontSize=13;" parent="1" source="44" edge="1">
                    <mxGeometry relative="1" as="geometry">
                        <mxPoint x="200" y="371" as="targetPoint"/>
                    </mxGeometry>
                </mxCell>
                <mxCell id="65" value="" style="edgeStyle=none;rounded=0;html=1;fontSize=13;exitX=1;exitY=0.5;exitDx=0;exitDy=0;" parent="1" source="44" target="26" edge="1">
                    <mxGeometry relative="1" as="geometry">
                        <Array as="points">
                            <mxPoint x="455" y="372"/>
                        </Array>
                    </mxGeometry>
                </mxCell>
                <mxCell id="44" value="" style="shape=image;imageAspect=0;aspect=fixed;verticalLabelPosition=bottom;verticalAlign=top;image=data:image/png,iVBORw0KGgoAAAANSUhEUgAAAFEAAAA/CAYAAACYcSQcAAAAAXNSR0IArs4c6QAAAARnQU1BAACxjwv8YQUAAAAJcEhZcwAADsMAAA7DAcdvqGQAAAg/SURBVHhe7ZprbBTXGYafmdmbd71eg4kxFAwJKBiHlFyAJkopIRCwQpWikEgUFyKlUNUpQqGiKShUhfRC2kZNRNNEpSqRjICkKBWuCgICDQ0RCiUyCbVwQ6mFgAJxDfJ6veu9zKU/1jvsHHu9Xtg1A93nz8x5vzMazatzvnMbKRAIGBS5IWRRKJI7RRPzQNHEPFA0MQ8UTcwDRRPzQNHEPFA0MQ/Y3kTvsndEyXbYykT3wyssZWXsNJyT6yyaHbGViZ4nfwVAydc3UfLUZkqfPyhWsSW2MjGF65EGXNOXmeXAzzoscbthSxP7IDtExVbYw0Sn17z1Ld1uCd0K2MLEwMsXzXtH7QJL7FZgyEyUy8eK0m3DkJno/+E/RMlCyVObRclCtvjNZMhMzEb6aNwf2eI3k4KbWLrqiKXsfvwlS/l2oOAmKqPuNe/dM1fieewHlrhr2lJLeSAcE2bhXfx7UR40vm/vFqW8UDATnVOeFCU8T/xUlChZ9BtRyohveRPOqc+IsgW54k5zva186T7oXQGVfu8DHBMfFWrnh4KZ6K1vpGThr0XZxDFhligNGs/ctaJk4l9zAufkOnwN71O68jDu2WtwPdKAMuZ+sWreKIiJqemM6yvPiSET3/Im3LPXiPKgcM/JbGIKR/V0ADzz1lt098yVeR/ppUKcOwc2dVrKic/ewzl10bVySxPOKd+w1MkZXSWy8znkYdXEjryBZ/6Pie7f2OfdmdCvtIHLR+jnk8RQzpgtsb/uJTncogSAs2a+KA1IuoHAjRtIcj3trW8086z70dUDpg8RueIuZP9IUTbxr2kWJQDkyhpRumaib3mTNQKU/eQLUQLA++y7onRT8TW8D1nSRyZ8K/4iStBrcn/4V38sSoXJiUNNKv9dD467vipKOWM7ExOXThH6YDOxtqPEzzeTaD9NtPWAWM1W5N1E5wPfFKWsaMGL6LFuoq0HiDT/ET1ylWjrAXpO/pnI8R3E2o6Kj9gKq4myYikCKKOmIHnKRBmpbBTuWS8A4Bj/EKWrjlC2/t94n3lLrGoS/89JUQKg+6MthA6+OqBZwb0v03NqH2hxMdQHLXhta+1GcM9cKUoWZH8lpE9xUlOD4Lpys1L6dCG4rhzJ4cY1e41l6RY/trVPQlevnkPruoziH4Ha0YZSVkX0Xx+ih9pRhlVTUjuP6Od/RfZXkjj/KYYatTyfDWdVLSX31KGFO9AjnShlVeiRTvRwB/GLLeihdpwj70b2jUAPd6DHupHcZaBGkZxeZH8lkiyjBEbjuGMiiZYmjEQU1BjKqHtJnD5ofmNwXTlyxZ0Y4Su4Hv4Onnnr0S6cQP18P+45a+l+41GkkYs2GQBSzRPInlKkniCSrwL1zGGUCV9D6+lC8Q2H7v+ijLkf7epZdDUOmork8gBgaCoAeqgdPdJJ/Nwn6d9saySHB9/0xRiGnhJwDK9GvdKGEY8gawmkYeOQfcPNb5cMHZxeDDWK7C5Fqn7TMACCezYAEFiQvKZr6Xq6drsSWLDB4kdwzwaLJpL3geX/EalqxTsG8TBS9Yxk0zT0ZFeuno7hDmDEupC9w9FamnA+uAQtEkwmd11Fclq7sxZqx+jpJHb278Jr7Ivk8uJ9cDESvd1ZdmBcPYtUPgY9FkEprcDQNRLHtuKYtgy0OIahI7u8GIkoktOT28AC4J71Ap66a83aiAaRPAGzDKB1XkALXhtYZH8VsTMfonVdxlExHs/k5MCi+CuJX/gUIx6xPJ8N5+gpeGrrMHoHFrmsCqOnE627g8TFluR7Rtag+EeghTognhxYDDWK5PKi+CtBklHKR+PoXZnEjm5BqaoFNUr47actfihjp6Gd/wRnzXxztRY79AruOWvp2b06dxPT9fDv6lDPfoxv6fZBndIlLrXgHDVFlDPmmnQkxYFr3Azckx5DynIOrXVdRimrEuWMJJp3ENn1vEXrz49MupkT9SttppgifmwrwZcqRBn13PHk9WxyHRneVk+4cQmRXQ1olzIfSPVnIEDpzO9SNu9F3BMzL8HK6tbjmTwvq4FATgYCfQwEUM8cFqWMmCaGXn3AGgF6dn8fdE2UCb/1uCihtu4l0byT7s0zxVBWlLIqJKcXz6S5+KYtRikdQck9dXinLsQ341sDmlsown9YKEoA/Taq6x6dtQsnRCkvOEbWUDprJa7xD+Eccx+OOybimTRXrDYkxI9tFSXQtT69zbIpK3mHY0SuWioMpGdisBujdkHMe7liaYmZjMqkD5ZUDi0U0X3ZB6ZMJFr67qPmynV354GIHUme4Kmnk/8X9pdDAYyu698oUE/tMe9jf3sdAD3U/yZyJtRTe4hsf1aUc6YgJkb3/ojovg2E335aDAGgf9EKQNemWjE0aMLb6kl89p5Zjh1+bVDnJeHGJRjhKySadxDeVi+Gr4uCHFSlE9jUSXBded85p9MLiQhy+dis/+n0RyqPOe6eg3r6kKkPlI8TrfuINC4W5RumIC0xnYzzrURylaJ3nhcjOZFuIEDoF8k/LuLHGwGI7GqA3tlEIQxkKEwU51tq20eWcq7o7f80jekPvfM88RPv0vOnVUT3rifRvBP19EG6fztbrJo3Ct6dU/S3XBJjg6G/5282BW+JKWKHXxOlnEm07hMlWzBkJkb3bzSnPiKDmZrEDr1SsJx2owxZd86G/8WTyMOqRdnEjt04xZC1xGyEfvllUbplsI2JKYxo0FyN2Ln1pWMrE7u3LKBr4zjC2+rpfjO5cxM90PfHULthm5w4EKlVj12xVUvMRD6mR4XklmiJdueWaIl2p2hiHiiamAeKJuaBool54H+Bk+Y52hg6MwAAAABJRU5ErkJggg==;" parent="1" vertex="1">
                    <mxGeometry x="340" y="340.5" width="81" height="63" as="geometry"/>
                </mxCell>
                <mxCell id="64" value="" style="edgeStyle=none;rounded=0;html=1;fontSize=13;" parent="1" source="45" target="27" edge="1">
                    <mxGeometry relative="1" as="geometry"/>
                </mxCell>
                <mxCell id="45" value="" style="shape=image;imageAspect=0;aspect=fixed;verticalLabelPosition=bottom;verticalAlign=top;image=data:image/png,iVBORw0KGgoAAAANSUhEUgAAAFEAAAA/CAYAAACYcSQcAAAAAXNSR0IArs4c6QAAAARnQU1BAACxjwv8YQUAAAAJcEhZcwAADsMAAA7DAcdvqGQAAAg/SURBVHhe7ZprbBTXGYafmdmbd71eg4kxFAwJKBiHlFyAJkopIRCwQpWikEgUFyKlUNUpQqGiKShUhfRC2kZNRNNEpSqRjICkKBWuCgICDQ0RCiUyCbVwQ6mFgAJxDfJ6veu9zKU/1jvsHHu9Xtg1A93nz8x5vzMazatzvnMbKRAIGBS5IWRRKJI7RRPzQNHEPFA0MQ8UTcwDRRPzQNHEPFA0MQ/Y3kTvsndEyXbYykT3wyssZWXsNJyT6yyaHbGViZ4nfwVAydc3UfLUZkqfPyhWsSW2MjGF65EGXNOXmeXAzzoscbthSxP7IDtExVbYw0Sn17z1Ld1uCd0K2MLEwMsXzXtH7QJL7FZgyEyUy8eK0m3DkJno/+E/RMlCyVObRclCtvjNZMhMzEb6aNwf2eI3k4KbWLrqiKXsfvwlS/l2oOAmKqPuNe/dM1fieewHlrhr2lJLeSAcE2bhXfx7UR40vm/vFqW8UDATnVOeFCU8T/xUlChZ9BtRyohveRPOqc+IsgW54k5zva186T7oXQGVfu8DHBMfFWrnh4KZ6K1vpGThr0XZxDFhligNGs/ctaJk4l9zAufkOnwN71O68jDu2WtwPdKAMuZ+sWreKIiJqemM6yvPiSET3/Im3LPXiPKgcM/JbGIKR/V0ADzz1lt098yVeR/ppUKcOwc2dVrKic/ewzl10bVySxPOKd+w1MkZXSWy8znkYdXEjryBZ/6Pie7f2OfdmdCvtIHLR+jnk8RQzpgtsb/uJTncogSAs2a+KA1IuoHAjRtIcj3trW8086z70dUDpg8RueIuZP9IUTbxr2kWJQDkyhpRumaib3mTNQKU/eQLUQLA++y7onRT8TW8D1nSRyZ8K/4iStBrcn/4V38sSoXJiUNNKv9dD467vipKOWM7ExOXThH6YDOxtqPEzzeTaD9NtPWAWM1W5N1E5wPfFKWsaMGL6LFuoq0HiDT/ET1ylWjrAXpO/pnI8R3E2o6Kj9gKq4myYikCKKOmIHnKRBmpbBTuWS8A4Bj/EKWrjlC2/t94n3lLrGoS/89JUQKg+6MthA6+OqBZwb0v03NqH2hxMdQHLXhta+1GcM9cKUoWZH8lpE9xUlOD4Lpys1L6dCG4rhzJ4cY1e41l6RY/trVPQlevnkPruoziH4Ha0YZSVkX0Xx+ih9pRhlVTUjuP6Od/RfZXkjj/KYYatTyfDWdVLSX31KGFO9AjnShlVeiRTvRwB/GLLeihdpwj70b2jUAPd6DHupHcZaBGkZxeZH8lkiyjBEbjuGMiiZYmjEQU1BjKqHtJnD5ofmNwXTlyxZ0Y4Su4Hv4Onnnr0S6cQP18P+45a+l+41GkkYs2GQBSzRPInlKkniCSrwL1zGGUCV9D6+lC8Q2H7v+ijLkf7epZdDUOmork8gBgaCoAeqgdPdJJ/Nwn6d9saySHB9/0xRiGnhJwDK9GvdKGEY8gawmkYeOQfcPNb5cMHZxeDDWK7C5Fqn7TMACCezYAEFiQvKZr6Xq6drsSWLDB4kdwzwaLJpL3geX/EalqxTsG8TBS9Yxk0zT0ZFeuno7hDmDEupC9w9FamnA+uAQtEkwmd11Fclq7sxZqx+jpJHb278Jr7Ivk8uJ9cDESvd1ZdmBcPYtUPgY9FkEprcDQNRLHtuKYtgy0OIahI7u8GIkoktOT28AC4J71Ap66a83aiAaRPAGzDKB1XkALXhtYZH8VsTMfonVdxlExHs/k5MCi+CuJX/gUIx6xPJ8N5+gpeGrrMHoHFrmsCqOnE627g8TFluR7Rtag+EeghTognhxYDDWK5PKi+CtBklHKR+PoXZnEjm5BqaoFNUr47actfihjp6Gd/wRnzXxztRY79AruOWvp2b06dxPT9fDv6lDPfoxv6fZBndIlLrXgHDVFlDPmmnQkxYFr3Azckx5DynIOrXVdRimrEuWMJJp3ENn1vEXrz49MupkT9SttppgifmwrwZcqRBn13PHk9WxyHRneVk+4cQmRXQ1olzIfSPVnIEDpzO9SNu9F3BMzL8HK6tbjmTwvq4FATgYCfQwEUM8cFqWMmCaGXn3AGgF6dn8fdE2UCb/1uCihtu4l0byT7s0zxVBWlLIqJKcXz6S5+KYtRikdQck9dXinLsQ341sDmlsown9YKEoA/Taq6x6dtQsnRCkvOEbWUDprJa7xD+Eccx+OOybimTRXrDYkxI9tFSXQtT69zbIpK3mHY0SuWioMpGdisBujdkHMe7liaYmZjMqkD5ZUDi0U0X3ZB6ZMJFr67qPmynV354GIHUme4Kmnk/8X9pdDAYyu698oUE/tMe9jf3sdAD3U/yZyJtRTe4hsf1aUc6YgJkb3/ojovg2E335aDAGgf9EKQNemWjE0aMLb6kl89p5Zjh1+bVDnJeHGJRjhKySadxDeVi+Gr4uCHFSlE9jUSXBded85p9MLiQhy+dis/+n0RyqPOe6eg3r6kKkPlI8TrfuINC4W5RumIC0xnYzzrURylaJ3nhcjOZFuIEDoF8k/LuLHGwGI7GqA3tlEIQxkKEwU51tq20eWcq7o7f80jekPvfM88RPv0vOnVUT3rifRvBP19EG6fztbrJo3Ct6dU/S3XBJjg6G/5282BW+JKWKHXxOlnEm07hMlWzBkJkb3bzSnPiKDmZrEDr1SsJx2owxZd86G/8WTyMOqRdnEjt04xZC1xGyEfvllUbplsI2JKYxo0FyN2Ln1pWMrE7u3LKBr4zjC2+rpfjO5cxM90PfHULthm5w4EKlVj12xVUvMRD6mR4XklmiJdueWaIl2p2hiHiiamAeKJuaBool54H+Bk+Y52hg6MwAAAABJRU5ErkJggg==;" parent="1" vertex="1">
                    <mxGeometry x="534.5" y="340.5" width="81" height="63" as="geometry"/>
                </mxCell>
                <mxCell id="49" value="&lt;span style=&quot;font-weight: normal;&quot;&gt;&lt;font style=&quot;font-size: 13px;&quot;&gt;Extraits superposés&lt;/font&gt;&lt;/span&gt;" style="text;strokeColor=none;fillColor=none;html=1;fontSize=24;fontStyle=1;verticalAlign=middle;align=center;" parent="1" vertex="1">
                    <mxGeometry x="434.5" y="300.5" width="90" height="40" as="geometry"/>
                </mxCell>
                <mxCell id="54" value="" style="endArrow=classic;html=1;rounded=0;fontSize=13;exitX=0.5;exitY=1;exitDx=0;exitDy=0;exitPerimeter=0;entryX=0;entryY=0;entryDx=50;entryDy=0;entryPerimeter=0;" parent="1" source="25" target="28" edge="1">
                    <mxGeometry relative="1" as="geometry">
                        <mxPoint x="325" y="434.5" as="sourcePoint"/>
                        <mxPoint x="425" y="434.5" as="targetPoint"/>
                    </mxGeometry>
                </mxCell>
                <mxCell id="55" value="Entrainement" style="edgeLabel;resizable=0;html=1;align=center;verticalAlign=middle;fontSize=13;" parent="54" connectable="0" vertex="1">
                    <mxGeometry relative="1" as="geometry"/>
                </mxCell>
                <mxCell id="56" value="" style="endArrow=classic;html=1;rounded=0;fontSize=13;exitX=0.5;exitY=1;exitDx=0;exitDy=0;exitPerimeter=0;entryX=0;entryY=0;entryDx=50;entryDy=0;entryPerimeter=0;" parent="1" source="27" target="29" edge="1">
                    <mxGeometry relative="1" as="geometry">
                        <mxPoint x="590" y="516" as="sourcePoint"/>
                        <mxPoint x="580" y="576" as="targetPoint"/>
                    </mxGeometry>
                </mxCell>
                <mxCell id="57" value="Entrainement" style="edgeLabel;resizable=0;html=1;align=center;verticalAlign=middle;fontSize=13;" parent="56" connectable="0" vertex="1">
                    <mxGeometry relative="1" as="geometry"/>
                </mxCell>
                <mxCell id="69" value="" style="endArrow=classic;html=1;rounded=0;fontSize=13;exitX=0;exitY=0.5;exitDx=0;exitDy=0;exitPerimeter=0;entryX=0;entryY=0;entryDx=120;entryDy=20;entryPerimeter=0;" parent="1" source="26" target="28" edge="1">
                    <mxGeometry relative="1" as="geometry">
                        <mxPoint x="340" y="542" as="sourcePoint"/>
                        <mxPoint x="290" y="447" as="targetPoint"/>
                    </mxGeometry>
                </mxCell>
                <mxCell id="70" value="Inférence sur le nombre&lt;br&gt;&amp;nbsp;de vocalisations" style="edgeLabel;resizable=0;html=1;align=center;verticalAlign=middle;fontSize=13;" parent="69" connectable="0" vertex="1">
                    <mxGeometry relative="1" as="geometry"/>
                </mxCell>
                <mxCell id="74" value="Comparison des performances" style="rounded=1;whiteSpace=wrap;html=1;fontSize=13;" parent="1" vertex="1">
                    <mxGeometry x="345" y="522" width="220" height="60" as="geometry"/>
                </mxCell>
                <mxCell id="77" value="" style="endArrow=classic;html=1;rounded=0;fontSize=13;exitX=1;exitY=0.5;exitDx=0;exitDy=0;exitPerimeter=0;entryX=-0.025;entryY=0.3;entryDx=0;entryDy=0;entryPerimeter=0;" parent="1" source="26" target="29" edge="1">
                    <mxGeometry relative="1" as="geometry">
                        <mxPoint x="430" y="457" as="sourcePoint"/>
                        <mxPoint x="220" y="469.5" as="targetPoint"/>
                    </mxGeometry>
                </mxCell>
                <mxCell id="78" value="Inférence sur le nombre&lt;br&gt;&amp;nbsp;de vocalisations" style="edgeLabel;resizable=0;html=1;align=center;verticalAlign=middle;fontSize=13;" parent="77" connectable="0" vertex="1">
                    <mxGeometry relative="1" as="geometry"/>
                </mxCell>
                <mxCell id="80" value="" style="swimlane;startSize=0;dashed=1;" parent="1" vertex="1">
                    <mxGeometry x="320" y="334" width="310" height="80" as="geometry"/>
                </mxCell>
                <mxCell id="81" value="" style="swimlane;startSize=0;dashed=1;fillColor=#60a917;fontColor=#ffffff;strokeColor=#2D7600;" parent="1" vertex="1">
                    <mxGeometry x="310" y="75" width="120" height="95" as="geometry"/>
                </mxCell>
                <mxCell id="82" value="" style="swimlane;startSize=0;dashed=1;fillColor=#d80073;fontColor=#ffffff;strokeColor=#A50040;" parent="1" vertex="1">
                    <mxGeometry x="515" y="73" width="120" height="95" as="geometry"/>
                </mxCell>
                <mxCell id="89" value="" style="edgeStyle=none;html=1;" parent="1" source="84" target="44" edge="1">
                    <mxGeometry relative="1" as="geometry"/>
                </mxCell>
                <mxCell id="84" value="Superposition" style="rounded=1;whiteSpace=wrap;html=1;fontSize=13;" parent="1" vertex="1">
                    <mxGeometry x="335.75" y="266" width="89.5" height="40" as="geometry"/>
                </mxCell>
                <mxCell id="90" value="" style="edgeStyle=none;html=1;" parent="1" source="85" target="45" edge="1">
                    <mxGeometry relative="1" as="geometry"/>
                </mxCell>
                <mxCell id="85" value="Superposition" style="rounded=1;whiteSpace=wrap;html=1;fontSize=13;" parent="1" vertex="1">
                    <mxGeometry x="530.25" y="266" width="89.5" height="40" as="geometry"/>
                </mxCell>
                <mxCell id="93" value="" style="edgeStyle=none;html=1;exitX=0.5;exitY=1;exitDx=0;exitDy=0;entryX=0.5;entryY=0;entryDx=0;entryDy=0;" edge="1" parent="1" source="6" target="38">
                    <mxGeometry relative="1" as="geometry">
                        <mxPoint x="585" y="350" as="sourcePoint"/>
                        <mxPoint x="620" y="220" as="targetPoint"/>
                        <Array as="points"/>
                    </mxGeometry>
                </mxCell>
            </root>
        </mxGraphModel>
    </diagram>
</mxfile>